<?xml version="1.0" encoding="utf-8"?>
<!-- Generator: Adobe Illustrator 22.1.0, SVG Export Plug-In . SVG Version: 6.00 Build 0)  -->
<svg version="1.1"
	 id="svg2" inkscape:version="1.0.1 (3bc2e813f5, 2020-09-07)" sodipodi:docname="logo-maximiza.svg" xmlns:cc="http://creativecommons.org/ns#" xmlns:dc="http://purl.org/dc/elements/1.1/" xmlns:inkscape="http://www.inkscape.org/namespaces/inkscape" xmlns:rdf="http://www.w3.org/1999/02/22-rdf-syntax-ns#" xmlns:sodipodi="http://sodipodi.sourceforge.net/DTD/sodipodi-0.dtd" xmlns:svg="http://www.w3.org/2000/svg"
	 xmlns="http://www.w3.org/2000/svg" xmlns:xlink="http://www.w3.org/1999/xlink" x="0px" y="0px" viewBox="0 0 756.5 235"
	 style="enable-background:new 0 0 756.5 235;" xml:space="preserve">
<style type="text/css">
	.st0{fill:#2D2D2D;}
	.st1{fill-rule:evenodd;clip-rule:evenodd;fill:#006548;}
	.st2{fill:#231F20;}
</style>
<sodipodi:namedview  bordercolor="#666666" borderopacity="1" gridtolerance="10" guidetolerance="10" id="namedview4" inkscape:current-layer="g10" inkscape:cx="377.3226" inkscape:cy="112.13083" inkscape:pageopacity="0" inkscape:pageshadow="2" inkscape:window-height="1016" inkscape:window-maximized="1" inkscape:window-width="1920" inkscape:window-x="1600" inkscape:window-y="27" inkscape:zoom="1.2389519" objecttolerance="10" pagecolor="#ffffff" showgrid="false">
	</sodipodi:namedview>
<g>
	<g>
		<path class="st0" d="M345.3,161.8c-3.2,0-4.8-2.3-4.8-7v-48.7c0-6.1-2.3-10.7-6.9-14c-4.6-3.3-11.2-5-19.6-5c-1,0-1.9,0-2.9,0.1
			l-11.9,10.4c3-1.2,6.4-1.8,10.2-1.8c4.5,0,8.1,1.1,10.8,3.3c2.8,2.2,4.1,5,4.1,8.5c0,3-0.8,5.3-2.5,7c-1.6,1.7-4.4,3.2-8.3,4.4
			c-9.3,2.8-15.3,4.7-17.9,5.7c-2.6,1-5.4,2.5-8.4,4.4c-6.7,4.4-10.1,11.1-10.1,20c0,7.5,2.4,13.5,7.1,17.9
			c3.8,3.7,8.9,5.5,15.2,5.5c6.1,0,11.6-1.4,16.4-4.2c2.7-1.6,5.7-4.3,9-8.2c1,4.6,2.5,7.9,4.6,9.7c2,1.8,5,2.8,9,2.8
			c3.8,0,7.9-1.4,12.1-4.1v-9.1C348.3,160.9,346.5,161.8,345.3,161.8z M324.4,143.4c0,3.8-1.1,7.3-3.4,10.6
			c-3.6,5.2-8.5,7.8-14.8,7.8c-4,0-7.3-1.3-9.7-4c-2.4-2.6-3.7-6.1-3.7-10.5c0-3.8,1.1-7.3,3.3-10.4c2.2-3.1,6-5.7,11.6-7.8
			c7.2-2.7,11.2-4.3,12.2-4.7c1-0.4,2.4-1.2,4.5-2.3V143.4z"/>
	</g>
	<path class="st0" d="M379.5,130.7l-22.1-37.2c-1-1.8-2-3.3-3-4.5H374c0.4,1.3,1.1,2.8,2.1,4.5l15.2,25l17.1-25
		c1.2-1.9,2-3.4,2.3-4.5h9.8c-1.6,2-2.7,3.5-3.4,4.5L395.4,126l24,40.4c0.7,1.2,1.7,2.7,3.1,4.5h-19.8c0-1.1-0.7-2.6-1.8-4.5
		l-17-28.4l-19.4,28.4c-0.6,0.9-1.4,2.4-2.6,4.5h-9.7c0.8-0.9,2-2.4,3.5-4.5L379.5,130.7z"/>
	<path class="st0" d="M427.9,89h17.3c-0.4,1.6-0.6,3.3-0.6,5.1v71.8c0,1.7,0.2,3.4,0.6,5.1h-17.3c0.4-1.5,0.6-3.2,0.6-5.1V94.1
		C428.5,92.2,428.3,90.5,427.9,89z"/>
	<path class="st0" d="M473.5,98.4c5.9-7.5,13.8-11.3,23.4-11.3c5.4,0,9.8,0.9,13.3,2.7c3.5,1.8,6.4,4.7,8.8,8.6
		c3.9-4.1,7.8-7.1,11.5-8.8c3.7-1.7,8.2-2.5,13.4-2.5c15.8,0,23.7,7.7,23.7,23v55.8c0,1.8,0.2,3.5,0.6,5.1H551
		c0.4-1.6,0.6-3.3,0.6-5.1v-53.1c0-4.4-0.7-7.6-2.2-9.6c-2.1-3.1-6-4.6-11.7-4.6c-5.4,0-9.6,1.4-12.6,4.2c-3,2.8-4.5,6.8-4.5,11.9
		v51.3c0,1.9,0.2,3.6,0.6,5.1h-17.3c0.4-1.5,0.6-3.2,0.6-5.1v-53.1c0-4.4-0.8-7.5-2.3-9.5c-2.4-3.1-6.2-4.7-11.4-4.7
		c-5.1,0-9.2,1.4-12.4,4.1c-3.1,2.7-4.7,6.3-4.7,10.8v52.5c0,1.8,0.2,3.5,0.6,5.1h-17.3c0.4-1.6,0.6-3.3,0.6-5.1V94
		c0-1.9-0.2-3.6-0.6-5h16.4V98.4z"/>
	<path class="st0" d="M579.2,89h17.3c-0.4,1.6-0.6,3.3-0.6,5.1v71.8c0,1.7,0.2,3.4,0.6,5.1h-17.3c0.4-1.5,0.6-3.2,0.6-5.1V94.1
		C579.8,92.2,579.6,90.5,579.2,89z"/>
	<path class="st0" d="M606.7,171v-8.3l49-65.7h-42.1c-2,0-4.1,0.2-6.3,0.7V89h67.3v8.2l-48.8,65.6h42.8c2,0,3.9-0.2,6-0.6v8.7H606.7
		z"/>
	<path class="st0" d="M722.9,159.9c-3.3,3.9-6.3,6.6-9,8.2c-4.8,2.8-10.3,4.2-16.5,4.2c-6.3,0-11.4-1.9-15.2-5.5
		c-4.7-4.5-7.1-10.4-7.1-17.9c0-8.9,3.3-15.6,10.1-20c3-1.9,5.8-3.4,8.4-4.4c2.6-1,8.6-2.9,17.9-5.7c3.9-1.2,6.7-2.6,8.3-4.4
		c1.6-1.7,2.5-4.1,2.5-7c0-3.5-1.4-6.3-4.2-8.5c-2.8-2.2-6.4-3.3-10.8-3.3c-3.8,0-7.3,0.6-10.3,1.9c-3,1.2-6.7,3.5-11,6.9l-2.6-10.4
		c5.6-2.6,10.4-4.4,14.4-5.4c4-1,8.7-1.5,14-1.5c8.5,0,15,1.7,19.6,5c4.6,3.3,6.9,8,6.9,14v48.7c0,4.7,1.6,7,4.8,7
		c1.3,0,3-0.8,5.3-2.5v9.1c-4.2,2.7-8.3,4.1-12.1,4.1c-4,0-7-0.9-9-2.8C725.5,167.8,723.9,164.6,722.9,159.9z M722.4,122.1
		c-2.1,1.1-3.5,1.9-4.5,2.3c-1,0.4-5,2-12.2,4.7c-5.6,2.1-9.4,4.7-11.6,7.8c-2.2,3.2-3.3,6.7-3.3,10.4c0,4.4,1.2,7.8,3.6,10.5
		c2.4,2.6,5.7,4,9.7,4c6.3,0,11.2-2.6,14.8-7.8c2.3-3.3,3.4-6.8,3.4-10.6V122.1z"/>
	<g>
		<g>
			<path class="st1" d="M5,204.4L180.7,61c8.2-6.1,22.2-16.3,31.5-6.4c11.6,13-9.6,31.7-16.2,39.8l-3.1,3.6l76.5-62
				c5.5-3.8,10.9-9,17.2-4.8c9.5,6.3,0.8,19-3.1,25.2l-30,42.8l-17,20.8l76.9-52.4l85.3-52.8l0.9,1.4c0,0-181.2,137.6-191.6,141.3
				c-7.4,2.4-13.2-4.4-10.3-11.3c2.9-7.6,47.4-67.3,47.4-67.3l-24.9,19.9l-97.6,86.4c-5.5,4.2-13.2,5.6-18.7,0.1
				c-4.8-5.5-2.6-11.7,0.5-18l15.2-19.2l7.6-9.1L25,226.7c-6.2,5.5-15.8,4.9-21.3-1.3C-1.7,219.2-1.1,209.9,5,204.4z"/>
		</g>
		<path class="st1" d="M367,17.5c10.6-1.5,28.6-7,54.3-17.2c-3.7,7.7-8,14.7-8.7,22.9C406.4,18.3,382.9,18.7,367,17.5z"/>
	</g>
</g>
<g>
	<path class="st2" d="M403,221.8L403,221.8c0-7.3,5.4-13.3,12.9-13.3c4.6,0,7.4,1.6,10,4.1l-2,2.1c-2.2-2-4.6-3.5-8-3.5
		c-5.7,0-9.9,4.6-9.9,10.5v0.1c0,5.9,4.3,10.6,9.9,10.6c3.5,0,5.8-1.4,8.3-3.7l1.9,1.9c-2.7,2.7-5.6,4.5-10.2,4.5
		C408.4,234.9,403,229.1,403,221.8z"/>
	<path class="st2" d="M444.2,208.7h2.7l11.7,25.8h-3.1l-3-6.8h-13.9l-3,6.8h-3L444.2,208.7z M451.3,225.1l-5.8-13l-5.8,13H451.3z"/>
	<path class="st2" d="M465,230.8l1.8-2.1c2.7,2.4,5.2,3.6,8.8,3.6c3.4,0,5.7-1.8,5.7-4.3v-0.1c0-2.4-1.3-3.7-6.6-4.9
		c-5.9-1.3-8.6-3.2-8.6-7.4v-0.1c0-4,3.5-7,8.4-7c3.7,0,6.4,1.1,9,3.1l-1.7,2.2c-2.4-1.9-4.7-2.8-7.4-2.8c-3.3,0-5.4,1.8-5.4,4.1
		v0.1c0,2.4,1.3,3.8,6.9,5c5.7,1.2,8.3,3.3,8.3,7.2v0.1c0,4.4-3.7,7.2-8.7,7.2C471.4,234.9,468.1,233.5,465,230.8z"/>
	<path class="st2" d="M502.6,208.7h2.7l11.7,25.8h-3.1l-3-6.8H497l-3,6.8h-3L502.6,208.7z M509.8,225.1l-5.8-13l-5.8,13H509.8z"/>
	<path class="st2" d="M540.3,208.9h8.9c8,0,13.6,5.5,13.6,12.7v0.1c0,7.2-5.6,12.8-13.6,12.8h-8.9V208.9z M549.2,231.8
		c6.5,0,10.6-4.4,10.6-10v-0.1c0-5.7-4.1-10.1-10.6-10.1h-6v20.2H549.2z"/>
	<path class="st2" d="M572.5,208.9H591v2.6h-15.6v8.7h14v2.6h-14v8.9h15.8v2.6h-18.7V208.9z"/>
	<path class="st2" d="M615.2,208.9h10.9c2.9,0,5.2,0.8,6.7,2.3c1.1,1.1,1.6,2.4,1.6,4.1v0.1c0,3.3-2,5-4.1,5.9
		c3,0.9,5.5,2.7,5.5,6.2v0.1c0,4.4-3.7,7-9.3,7h-11.4V208.9z M625.6,220.3c3.5,0,5.9-1.6,5.9-4.6v-0.1c0-2.5-2-4.2-5.7-4.2h-7.8v8.8
		H625.6z M626.7,231.9c3.9,0,6.3-1.7,6.3-4.6v-0.1c0-2.8-2.3-4.4-6.8-4.4h-8.1v9H626.7z"/>
	<path class="st2" d="M644.1,221.8L644.1,221.8c0-7.1,5.3-13.3,13.1-13.3c7.8,0,13,6.1,13,13.1c0,0,0,0,0,0.1
		c0,7-5.3,13.2-13.1,13.2C649.3,234.9,644.1,228.8,644.1,221.8z M667.2,221.8L667.2,221.8c0-5.9-4.2-10.6-10.1-10.6
		c-5.8,0-10,4.7-10,10.5v0.1c0,5.8,4.2,10.6,10.1,10.6S667.2,227.6,667.2,221.8z"/>
	<path class="st2" d="M679.9,208.9h2.9v22.9h14.4v2.7h-17.3V208.9z"/>
	<path class="st2" d="M704.5,230.8l1.8-2.1c2.7,2.4,5.2,3.6,8.8,3.6c3.4,0,5.7-1.8,5.7-4.3v-0.1c0-2.4-1.3-3.7-6.6-4.9
		c-5.9-1.3-8.6-3.2-8.6-7.4v-0.1c0-4,3.5-7,8.4-7c3.7,0,6.4,1.1,9,3.1l-1.7,2.2c-2.4-1.9-4.7-2.8-7.4-2.8c-3.3,0-5.4,1.8-5.4,4.1
		v0.1c0,2.4,1.3,3.8,6.9,5c5.7,1.2,8.3,3.3,8.3,7.2v0.1c0,4.4-3.7,7.2-8.7,7.2C710.9,234.9,707.6,233.5,704.5,230.8z"/>
	<path class="st2" d="M742.1,208.7h2.7l11.7,25.8h-3.1l-3-6.8h-13.9l-3,6.8h-3L742.1,208.7z M749.2,225.1l-5.8-13l-5.8,13H749.2z"/>
</g>
</svg>
