<?xml version="1.0" encoding="UTF-8" standalone="no"?>
<svg
   xmlns:dc="http://purl.org/dc/elements/1.1/"
   xmlns:cc="http://creativecommons.org/ns#"
   xmlns:rdf="http://www.w3.org/1999/02/22-rdf-syntax-ns#"
   xmlns:svg="http://www.w3.org/2000/svg"
   xmlns="http://www.w3.org/2000/svg"
   xmlns:sodipodi="http://sodipodi.sourceforge.net/DTD/sodipodi-0.dtd"
   xmlns:inkscape="http://www.inkscape.org/namespaces/inkscape"
   version="1.1"
   id="svg2"
   xml:space="preserve"
   width="766"
   height="235"
   viewBox="0 0 766 235"
   sodipodi:docname="logo-maximiza.svg"
   inkscape:version="1.0.1 (3bc2e813f5, 2020-09-07)"><metadata
     id="metadata8"><rdf:RDF><cc:Work
         rdf:about=""><dc:format>image/svg+xml</dc:format><dc:type
           rdf:resource="http://purl.org/dc/dcmitype/StillImage" /><dc:title></dc:title></cc:Work></rdf:RDF></metadata><defs
     id="defs6"><clipPath
       clipPathUnits="userSpaceOnUse"
       id="clipPath18"><path
         d="M 0,612 H 792 V 0 H 0 Z"
         id="path16" /></clipPath></defs><sodipodi:namedview
     pagecolor="#ffffff"
     bordercolor="#666666"
     borderopacity="1"
     objecttolerance="10"
     gridtolerance="10"
     guidetolerance="10"
     inkscape:pageopacity="0"
     inkscape:pageshadow="2"
     inkscape:window-width="1920"
     inkscape:window-height="1016"
     id="namedview4"
     showgrid="false"
     inkscape:zoom="1.2389519"
     inkscape:cx="377.3226"
     inkscape:cy="112.13083"
     inkscape:window-x="1600"
     inkscape:window-y="27"
     inkscape:window-maximized="1"
     inkscape:current-layer="g10" /><g
     id="g10"
     inkscape:groupmode="layer"
     inkscape:label="logo-maximiza-solo copia"
     transform="matrix(1.3333333,0,0,-1.3333333,0,816)"><g
       id="g12"
       transform="translate(-58.296799,212.98662)"><g
         id="g14"
         clip-path="url(#clipPath18)"><g
           id="g20"
           transform="translate(307.0982,289.4964)"><path
             d="m 0,0 c 0,-2.902 -0.867,-5.615 -2.589,-8.124 -2.756,-3.964 -6.543,-5.947 -11.382,-5.947 -3.103,0 -5.588,1.003 -7.459,3.036 -1.867,2.018 -2.802,4.702 -2.802,8.039 0,2.911 0.849,5.582 2.544,8.015 1.654,2.394 4.608,4.398 8.9,6.014 5.499,2.074 8.615,3.276 9.344,3.593 0.734,0.313 1.874,0.894 3.444,1.763 z m 16.028,-14.071 c -2.458,0 -3.693,1.794 -3.693,5.402 v 37.323 c 0,4.648 -1.768,8.239 -5.309,10.77 -3.534,2.541 -8.553,3.808 -15.033,3.808 -0.763,0 -1.484,-0.021 -2.211,-0.054 l -9.101,-7.949 c 2.291,0.934 4.898,1.401 7.827,1.401 3.418,0 6.193,-0.832 8.316,-2.506 C -1.055,32.452 0,30.274 0,27.602 0,25.329 -0.63,23.523 -1.886,22.21 c -1.25,-1.311 -3.373,-2.426 -6.357,-3.338 -7.155,-2.154 -11.745,-3.62 -13.768,-4.387 -2.023,-0.766 -4.17,-1.895 -6.451,-3.389 -5.144,-3.381 -7.721,-8.495 -7.721,-15.336 0,-5.744 1.807,-10.328 5.426,-13.744 2.939,-2.831 6.827,-4.252 11.672,-4.252 4.712,0 8.913,1.083 12.606,3.255 2.087,1.214 4.38,3.321 6.893,6.309 0.794,-3.544 1.953,-6.03 3.504,-7.441 1.548,-1.408 3.857,-2.123 6.914,-2.123 2.938,0 6.035,1.047 9.296,3.133 v 6.954 c -1.762,-1.277 -3.124,-1.922 -4.1,-1.922"
             style="fill:#2d2d2c;fill-opacity:1;fill-rule:nonzero;stroke:none"
             id="path22" /></g><g
           id="g24"
           transform="translate(349.4012,299.2238)"><path
             d="m 0,0 -16.925,28.53 c -0.778,1.376 -1.551,2.54 -2.294,3.48 h 14.973 c 0.276,-0.983 0.806,-2.142 1.591,-3.48 L 8.967,9.375 22.108,28.536 c 0.949,1.45 1.533,2.61 1.767,3.474 h 7.499 c -1.227,-1.535 -2.09,-2.692 -2.601,-3.48 L 12.146,3.654 30.552,-27.361 c 0.545,-0.903 1.335,-2.062 2.343,-3.479 H 17.743 c -0.033,0.83 -0.502,1.992 -1.411,3.479 L 3.301,-5.542 -11.611,-27.361 c -0.435,-0.66 -1.107,-1.822 -2.007,-3.479 h -7.426 c 0.63,0.671 1.509,1.833 2.653,3.479 z"
             style="fill:#2d2d2c;fill-opacity:1;fill-rule:nonzero;stroke:none"
             id="path26" /></g><g
           id="g28"
           transform="translate(386.5233,331.2334)"><path
             d="m 0,0 h 13.278 c -0.316,-1.21 -0.48,-2.512 -0.48,-3.885 v -55.069 c 0,-1.338 0.164,-2.631 0.48,-3.896 H 0 c 0.311,1.182 0.469,2.485 0.469,3.896 V -3.885 C 0.469,-2.429 0.311,-1.134 0,0"
             style="fill:#2d2d2c;fill-opacity:1;fill-rule:nonzero;stroke:none"
             id="path30" /></g><g
           id="g32"
           transform="translate(421.4987,324.049)"><path
             d="m 0,0 c 4.563,5.784 10.549,8.68 17.974,8.68 4.125,0 7.539,-0.69 10.224,-2.066 C 30.893,5.23 33.139,3.028 34.952,0 c 3.023,3.183 5.97,5.431 8.836,6.733 2.869,1.297 6.291,1.947 10.254,1.947 12.106,0 18.147,-5.88 18.147,-17.645 V -51.77 c 0,-1.374 0.162,-2.67 0.481,-3.896 H 59.395 c 0.311,1.226 0.472,2.522 0.472,3.896 v 40.74 c 0,3.346 -0.553,5.807 -1.651,7.383 -1.646,2.36 -4.64,3.548 -8.959,3.548 -4.158,0 -7.38,-1.077 -9.676,-3.212 -2.302,-2.158 -3.45,-5.199 -3.45,-9.129 v -39.33 c 0,-1.459 0.153,-2.752 0.475,-3.896 H 23.323 c 0.321,1.144 0.477,2.437 0.477,3.896 v 40.74 c 0,3.346 -0.591,5.789 -1.771,7.322 -1.843,2.406 -4.751,3.609 -8.709,3.609 C 9.4,-0.099 6.239,-1.15 3.839,-3.232 1.448,-5.318 0.25,-8.074 0.25,-11.497 V -51.77 c 0,-1.374 0.155,-2.67 0.471,-3.896 H -12.55 c 0.316,1.226 0.471,2.522 0.471,3.896 V 3.364 c 0,1.44 -0.155,2.727 -0.471,3.82 H 0 Z"
             style="fill:#2d2d2c;fill-opacity:1;fill-rule:nonzero;stroke:none"
             id="path34" /></g><g
           id="g36"
           transform="translate(502.5612,331.2334)"><path
             d="m 0,0 h 13.275 c -0.313,-1.21 -0.472,-2.512 -0.472,-3.885 v -55.069 c 0,-1.338 0.159,-2.631 0.472,-3.896 H 0 c 0.313,1.182 0.462,2.485 0.462,3.896 V -3.885 C 0.462,-2.429 0.313,-1.134 0,0"
             style="fill:#2d2d2c;fill-opacity:1;fill-rule:nonzero;stroke:none"
             id="path38" /></g><g
           id="g40"
           transform="translate(523.6506,268.3833)"><path
             d="M 0,0 V 6.354 L 37.567,56.747 H 5.265 c -1.569,0 -3.181,-0.179 -4.833,-0.532 V 62.85 H 52.073 V 56.568 L 14.637,6.238 h 32.837 c 1.496,0 3.021,0.153 4.599,0.469 V 0 Z"
             style="fill:#2d2d2c;fill-opacity:1;fill-rule:nonzero;stroke:none"
             id="path42" /></g><g
           id="g44"
           transform="translate(612.3627,305.8855)"><path
             d="m 0,0 c -1.575,-0.869 -2.723,-1.45 -3.443,-1.763 -0.736,-0.317 -3.851,-1.519 -9.354,-3.594 -4.277,-1.615 -7.246,-3.619 -8.894,-6.013 -1.698,-2.433 -2.543,-5.104 -2.543,-8.016 0,-3.336 0.934,-6.02 2.798,-8.039 1.874,-2.032 4.362,-3.035 7.462,-3.035 4.834,0 8.627,1.983 11.376,5.947 1.735,2.509 2.598,5.222 2.598,8.124 z m 0.414,-29.061 c -2.518,-2.988 -4.819,-5.095 -6.893,-6.309 -3.695,-2.172 -7.902,-3.255 -12.62,-3.255 -4.831,0 -8.724,1.421 -11.666,4.252 -3.614,3.416 -5.427,8 -5.427,13.744 0,6.841 2.567,11.955 7.724,15.336 2.284,1.494 4.428,2.623 6.458,3.389 2.017,0.767 6.612,2.233 13.761,4.387 2.987,0.912 5.104,2.027 6.369,3.338 C -0.633,7.134 0,8.94 0,11.213 c 0,2.672 -1.058,4.85 -3.185,6.521 -2.12,1.675 -4.897,2.507 -8.319,2.507 -2.944,0 -5.57,-0.47 -7.863,-1.419 -2.3,-0.944 -5.12,-2.7 -8.465,-5.256 l -1.999,8.015 c 4.282,2.014 7.972,3.39 11.081,4.138 3.106,0.753 6.686,1.124 10.741,1.124 6.486,0 11.501,-1.267 15.042,-3.808 3.529,-2.531 5.295,-6.122 5.295,-10.77 v -37.323 c 0,-3.608 1.232,-5.402 3.696,-5.402 0.977,0 2.334,0.645 4.095,1.922 v -6.954 c -3.258,-2.086 -6.358,-3.133 -9.293,-3.133 -3.057,0 -5.365,0.715 -6.911,2.123 -1.551,1.411 -2.719,3.897 -3.501,7.441"
             style="fill:#2d2d2c;fill-opacity:1;fill-rule:nonzero;stroke:none"
             id="path46" /></g><g
           id="g48"
           transform="translate(62.1654,242.713)"><path
             d="m 0,0 134.739,110.009 c 6.278,4.669 16.995,12.524 24.179,4.894 8.904,-9.988 -7.379,-24.326 -12.429,-30.565 l -2.381,-2.744 58.704,47.59 c 4.183,2.945 8.392,6.911 13.162,3.693 7.27,-4.823 0.587,-14.59 -2.379,-19.36 L 190.618,80.701 177.61,64.727 l 59.003,40.175 65.406,40.48 0.724,-1.04 c 0,0 -138.945,-105.535 -146.957,-108.357 -5.686,-1.874 -10.13,3.374 -7.928,8.669 2.224,5.813 36.326,51.593 36.326,51.593 L 165.06,80.965 90.2,14.68 c -4.192,-3.194 -10.108,-4.292 -14.327,-0.073 -3.711,4.204 -2.029,9.004 0.411,13.788 L 87.98,43.133 93.82,50.114 15.343,-17.077 C 10.61,-21.284 3.215,-20.8 -0.995,-16.085 -5.195,-11.347 -4.73,-4.207 0,0"
             style="fill:#006648;fill-opacity:1;fill-rule:evenodd;stroke:none"
             id="path50" /></g><g
           id="g52"
           transform="translate(339.8193,386.1177)"><path
             d="M 0,0 C 8.158,1.115 21.938,5.345 41.637,13.211 38.829,7.287 35.48,1.931 35,-4.322 30.175,-0.636 12.167,-0.917 0,0"
             style="fill:#006648;fill-opacity:1;fill-rule:evenodd;stroke:none"
             id="path54" /></g></g></g></g></svg>
