<?xml version="1.0" encoding="utf-8"?>
<!-- Generator: Adobe Illustrator 18.1.1, SVG Export Plug-In . SVG Version: 6.00 Build 0)  -->
<svg version="1.1" id="Layer_1" xmlns="http://www.w3.org/2000/svg" xmlns:xlink="http://www.w3.org/1999/xlink" x="0px" y="0px"
	 viewBox="0 0 250 60" enable-background="new 0 0 250 60" xml:space="preserve">
<g>
	<g id="t_1_">
		<g>
			<path fill="#4E4D50" d="M241.1,41c0,2.4-2,4.3-4.4,4.3c-2.4,0-4.4-1.9-4.4-4.3V15c0-2.4,2-4.3,4.4-4.3c2.4,0,4.4,1.9,4.4,4.3v4.1
				h4.4c2.4,0,4.4,1.9,4.4,4.3c0,2.4-2,4.3-4.4,4.3c-2.4,0-4.4,1.9-4.4,4.3V41z"/>
		</g>
	</g>
	<g id="e_1_">
		<g>
			<path fill="#4E4D50" d="M224.3,36.6l4.4-4.4c0-7.3-6-13.2-13.3-13.2s-13.3,5.9-13.3,13.2c0,7.3,6,13.2,13.3,13.2h8.9
				c2.4,0,4.4-2,4.4-4.4C228.8,38.6,226.8,36.6,224.3,36.6z M219.1,30.5l-5.3,5.3c-0.2,0.2-0.4,0.2-0.7,0.1l0,0
				c-0.3-0.2-0.5-0.4-0.7-0.6c-1.8-1.7-1.8-4.5,0-6.2c1.8-1.7,4.5-1.7,6.3,0c0.2,0.2,0.4,0.4,0.6,0.7l0,0
				C219.3,30,219.3,30.3,219.1,30.5z"/>
		</g>
	</g>
	<g id="n2_1_">
		<g>
			<path fill="#4E4D50" d="M199.7,32.2c0-7.3-6-13.2-13.3-13.2h-4.6v3.3c-0.5-1.9-2.2-3.3-4.3-3.3c-2.4,0-4.4,2-4.4,4.4v8.8V41
				c0,2.4,2,4.4,4.4,4.4s4.4-2,4.4-4.4v-8.8c0-2.4,2-4.4,4.4-4.4s4.4,2,4.4,4.4V41c0,2.4,2,4.4,4.4,4.4c2.4,0,4.4-2,4.4-4.4
				L199.7,32.2L199.7,32.2z"/>
		</g>
	</g>
	<g id="a_1_">
		<g>
			<path fill="#4E4D50" d="M156.7,36.6c-2.4,0-4.4-2-4.4-4.4c0-2.4,2-4.4,4.4-4.4s4.4,2,4.4,4.4C161.2,34.6,159.2,36.6,156.7,36.6z
				 M170.1,32.2c0-7.3-6-13.2-13.3-13.2s-13.3,5.9-13.3,13.2c0,7.2,6,13.2,13.3,13.2h4.6V42c0.5,1.9,2.2,3.3,4.3,3.3
				c2.4,0,4.4-2,4.4-4.4V32.2"/>
		</g>
	</g>
	<g id="v_1_">
		<g>
			<path fill="#4E4D50" d="M140.6,19.5c-2.2-1.1-4.8-0.2-5.9,2l-4.9,9.7l-4.9-9.7c-1.1-2.2-3.7-3-5.9-2c-2.2,1.1-3.1,3.7-2,5.9
				l8.7,17.3c0.8,1.6,2,2.7,4.1,2.7l0,0l0,0c2,0,3.3-1.3,4.1-2.7l8.7-17.3C143.7,23.2,142.8,20.6,140.6,19.5z"/>
		</g>
	</g>
	<g id="o_1_">
		<g>
			<path fill="#4E4D50" d="M102.5,19c-7.3,0-13.3,5.9-13.3,13.2c0,7.2,5.9,13.2,13.3,13.2c7.3,0,13.3-5.9,13.3-13.2
				S109.9,19,102.5,19z M102.5,36.5c-2.4,0-4.4-2-4.4-4.4c0-2.4,2-4.4,4.4-4.4s4.4,2,4.4,4.4C106.9,34.6,104.9,36.5,102.5,36.5z"/>
		</g>
	</g>
	<g id="n_1_">
		<g>
			<path fill="#4E4D50" d="M86.8,32.2c0-7.3-6-13.2-13.3-13.2h-4.6v3.3c-0.5-1.9-2.2-3.3-4.3-3.3c-2.4,0-4.4,2-4.4,4.4v8.8V41
				c0,2.4,2,4.4,4.4,4.4c2.4,0,4.4-2,4.4-4.4v-8.8c0-2.4,2-4.4,4.4-4.4s4.4,2,4.4,4.4V41c0,2.4,2,4.4,4.4,4.4s4.4-2,4.4-4.4
				L86.8,32.2z"/>
		</g>
	</g>
</g>
<g>
	<g>
		<path fill="#008ED3" d="M42.3,31.9c-7.8,0-14.1,6.3-14.1,14s6.3,14,14.1,14s14.1-6.3,14.1-14C56.4,38.2,50.1,31.9,42.3,31.9z
			 M42.3,50.6c-2.6,0-4.7-2.1-4.7-4.6s2.1-4.6,4.7-4.6c2.6,0,4.7,2.1,4.7,4.6S44.9,50.6,42.3,50.6z"/>
	</g>
	<path fill="#008ED3" d="M42.3,0c-7.8,0-14.1,6.3-14.1,14s6.3,14,14.1,14s14.1-6.3,14.1-14C56.4,6.3,50.1,0,42.3,0z M42.3,18.6
		c-2.6,0-4.7-2.1-4.7-4.6s2.1-4.6,4.7-4.6c2.6,0,4.7,2.1,4.7,4.6C47,16.5,44.9,18.6,42.3,18.6z"/>
	<path fill="#008ED3" d="M14.5,16.1C6.8,16.1,0.4,22.4,0.4,30c0,7.7,6.3,14,14.1,14s14.1-6.3,14.1-14C28.6,22.4,22.3,16.1,14.5,16.1
		z M14.5,34.7c-2.6,0-4.7-2.1-4.7-4.6s2.1-4.6,4.7-4.6s4.7,2.1,4.7,4.6C19.2,32.6,17.1,34.7,14.5,34.7z"/>
</g>
</svg>
