<svg width="1167" height="469" viewBox="0 0 1167 469" fill="none" xmlns="http://www.w3.org/2000/svg">
<g style="mix-blend-mode:multiply" opacity="0.1">
<path fill-rule="evenodd" clip-rule="evenodd" d="M13.9961 415.927L500.563 123.783C523.242 111.381 561.917 90.5343 587.881 110.797C620.021 137.326 561.231 175.408 542.995 191.952L534.4 199.229L746.375 72.8479C761.47 65.0404 776.673 54.4976 793.898 63.0487C820.151 75.8487 796.028 101.794 785.303 114.461L702.319 201.619L655.338 244.029L868.396 137.326L1104.6 29.8269L1107.2 32.5888C1107.2 32.5888 605.431 312.836 576.506 320.351C555.959 325.317 539.925 311.402 547.87 297.327C555.886 281.898 679.063 160.324 679.063 160.324L610.018 200.902L339.686 376.916C324.556 385.387 303.178 388.308 287.939 377.102C274.541 365.948 280.608 353.201 289.419 340.481L331.67 301.337L352.759 282.801L69.3913 461.258C52.3105 472.438 25.5879 471.137 10.385 458.629C-4.78191 446.041 -3.12077 427.08 13.96 415.9L13.9961 415.927Z" fill="#B1B1B1"/>
<path fill-rule="evenodd" clip-rule="evenodd" d="M1016.63 35.0807C1046.1 32.1329 1095.86 20.8997 1167 0C1156.85 15.7212 1144.76 29.9553 1143.02 46.5529C1125.62 36.7537 1060.58 37.5238 1016.63 35.0807Z" fill="#B1B1B1"/>
</g>
</svg>
