<svg width="100" height="23" viewBox="0 0 100 23" fill="none" xmlns="http://www.w3.org/2000/svg">
<g clip-path="url(#clip0_1735_687)">
<path d="M16.1154 12.3452C13.1154 12.3452 10.708 14.7296 10.708 17.7009C10.708 20.6722 13.1154 23.0565 16.1154 23.0565C19.1154 23.0565 21.5228 20.6722 21.5228 17.7009C21.5228 14.7296 19.1154 12.3452 16.1154 12.3452ZM16.1154 19.3516C15.0784 19.3516 14.3006 18.5813 14.3006 17.5541C14.3006 16.527 15.0784 15.7567 16.1154 15.7567C17.1525 15.7567 17.9302 16.527 17.9302 17.5541C17.8932 18.6179 17.1154 19.3516 16.1154 19.3516Z" fill="#007FFF"/>
<path d="M16.1154 0.00244141C13.1154 0.00244141 10.708 2.38681 10.708 5.35811C10.708 8.3294 13.1154 10.7138 16.1154 10.7138C19.1154 10.7138 21.5228 8.3294 21.5228 5.35811C21.4858 2.38681 19.1154 0.00244141 16.1154 0.00244141ZM16.1154 7.04551C15.0784 7.04551 14.3006 6.27518 14.3006 5.24806C14.3006 4.22095 15.0784 3.45061 16.1154 3.45061C17.1525 3.45061 17.9302 4.22095 17.9302 5.24806C17.9302 6.27518 17.1154 7.04551 16.1154 7.04551Z" fill="#007FFF"/>
<path d="M5.41229 6.09082C2.41229 6.09082 0.00488281 8.47519 0.00488281 11.4465C0.00488281 14.4178 2.41229 16.8021 5.41229 16.8021C8.41229 16.8021 10.8197 14.4178 10.8197 11.4465C10.8197 8.47519 8.41229 6.09082 5.41229 6.09082ZM5.41229 13.1339C4.37525 13.1339 3.59747 12.3635 3.59747 11.3364C3.59747 10.3093 4.37525 9.53899 5.41229 9.53899C6.44933 9.53899 7.2271 10.3093 7.2271 11.3364C7.19007 12.4002 6.41229 13.1339 5.41229 13.1339Z" fill="#007FFF"/>
<path d="M34.0386 12.3644C34.0386 9.42978 31.6312 7.04541 28.6682 7.04541H26.8164V8.36598C26.6312 7.59565 25.9275 7.04541 25.0756 7.04541C24.0756 7.04541 23.2979 7.85243 23.2979 8.80618V12.3644V15.9226C23.2979 16.913 24.1127 17.6834 25.0756 17.6834C26.0756 17.6834 26.8534 16.8764 26.8534 15.9226V12.3644C26.8534 11.374 27.6682 10.6036 28.6312 10.6036C29.6312 10.6036 30.409 11.4106 30.409 12.3644V15.9226C30.409 16.913 31.2238 17.6834 32.1867 17.6834C33.1867 17.6834 33.9645 16.8764 33.9645 15.9226L34.0386 12.3644Z" fill="white"/>
<path d="M79.815 12.3644C79.815 9.42978 77.4076 7.04541 74.4446 7.04541H72.5927V8.36598C72.4076 7.59565 71.7038 7.04541 70.852 7.04541C69.852 7.04541 69.0742 7.85243 69.0742 8.80618V12.3644V15.9226C69.0742 16.913 69.889 17.6834 70.852 17.6834C71.852 17.6834 72.6298 16.8764 72.6298 15.9226V12.3644C72.6298 11.374 73.4446 10.6036 74.4075 10.6036C75.4075 10.6036 76.1853 11.4106 76.1853 12.3644V15.9226C76.1853 16.913 77.0001 17.6834 77.9631 17.6834C78.9631 17.6834 79.7409 16.8764 79.7409 15.9226L79.815 12.3644Z" fill="white"/>
<path d="M89.8526 14.1613L91.6304 12.4005C91.6304 9.46591 89.223 7.08154 86.26 7.08154C83.2971 7.08154 80.8896 9.46591 80.8896 12.4005C80.8896 15.3351 83.2971 17.7195 86.26 17.7195H89.8526C90.8526 17.7195 91.6304 16.9125 91.6304 15.9587C91.6304 15.005 90.8526 14.1613 89.8526 14.1613ZM85.4452 13.9412C84.8526 13.6477 84.4822 13.0608 84.4822 12.3638C84.4822 11.3734 85.2971 10.6031 86.26 10.6031C86.9637 10.6031 87.5563 11.0066 87.8526 11.5568L85.4452 13.9412Z" fill="white"/>
<path d="M55.8532 7.22852C54.9643 6.78832 53.8902 7.15515 53.4458 8.03553L51.4828 11.9606L49.4828 8.03553C49.0384 7.15515 47.9643 6.78832 47.0754 7.22852C46.1865 7.66871 45.8161 8.7325 46.2606 9.61289L49.7791 16.5826C50.1124 17.2429 50.5939 17.6831 51.4458 17.6831C52.2606 17.6831 52.7791 17.1695 53.1124 16.5826L56.631 9.61289C57.1124 8.7325 56.7421 7.66871 55.8532 7.22852Z" fill="white"/>
<path d="M40.4817 7.04541C37.5187 7.04541 35.1113 9.42978 35.1113 12.3644C35.1113 15.299 37.5187 17.6834 40.4817 17.6834C43.4447 17.6834 45.8521 15.299 45.8521 12.3644C45.8521 9.42978 43.4447 7.04541 40.4817 7.04541ZM40.4817 14.1618C39.4817 14.1618 38.7039 13.3548 38.7039 12.4011C38.7039 11.4473 39.5187 10.6403 40.4817 10.6403C41.4817 10.6403 42.2595 11.4473 42.2595 12.4011C42.2595 13.3548 41.4817 14.1618 40.4817 14.1618Z" fill="white"/>
<path d="M62.4075 14.1618C61.4075 14.1618 60.6298 13.3548 60.6298 12.4011C60.6298 11.4106 61.4446 10.6403 62.4075 10.6403C63.4075 10.6403 64.1853 11.4473 64.1853 12.4011C64.2224 13.3548 63.4075 14.1618 62.4075 14.1618ZM67.815 12.3644C67.815 9.42978 65.4076 7.04541 62.4446 7.04541C59.4816 7.04541 57.0742 9.42978 57.0742 12.3644C57.0742 15.299 59.4816 17.6834 62.4446 17.6834H64.2964V16.3628C64.4816 17.1331 65.1853 17.6834 66.0372 17.6834C67.0372 17.6834 67.815 16.8764 67.815 15.9226V12.3644Z" fill="white"/>
<path d="M96.4081 15.9224C96.4081 16.9128 95.5933 17.6832 94.6303 17.6832C93.6303 17.6832 92.8525 16.8762 92.8525 15.9224V4.84426C92.8525 3.85383 93.6674 3.0835 94.6303 3.0835C95.6303 3.0835 96.4081 3.89051 96.4081 4.84426V7.04522H98.1859C99.1859 7.04522 99.9636 7.85224 99.9636 8.80598C99.9636 9.79642 99.1488 10.5668 98.1859 10.5668C97.1859 10.5668 96.4081 11.3738 96.4081 12.3275V15.9224Z" fill="white"/>
</g>
<defs>
<clipPath id="clip0_1735_687">
<rect width="100" height="23" fill="white"/>
</clipPath>
</defs>
</svg>
