<svg width="170" height="52" viewBox="0 0 170 52" fill="none" xmlns="http://www.w3.org/2000/svg">
<g clip-path="url(#clip0_1735_105)">
<path d="M78.4079 36.084C77.6796 36.084 77.3154 35.5627 77.3154 34.5113V23.6424C77.3154 22.2882 76.7914 21.2427 75.7433 20.5058C74.6982 19.7661 73.2119 19.3962 71.2934 19.3962C71.0684 19.3962 70.8552 19.4021 70.6391 19.4108L67.9449 21.7261C68.6229 21.4553 69.3956 21.3184 70.2631 21.3184C71.2756 21.3184 72.0957 21.5601 72.7264 22.0494C73.354 22.5358 73.6679 23.1706 73.6679 23.9482C73.6679 24.6093 73.4813 25.1365 73.1083 25.518C72.7382 25.8995 72.1105 26.2257 71.2253 26.4907C69.1084 27.1169 67.7494 27.545 67.1484 27.7692C66.5504 27.9935 65.9138 28.3226 65.2388 28.7565C63.717 29.7409 62.9531 31.232 62.9531 33.2241C62.9531 34.8958 63.489 36.2325 64.5608 37.2256C65.4312 38.0498 66.5829 38.4634 68.0159 38.4634C69.4489 38.4634 70.6539 38.1489 71.7493 37.514C72.3681 37.1616 73.0461 36.5471 73.7893 35.6763C74.0232 36.7072 74.3666 37.4324 74.8255 37.8431C75.2844 38.2537 75.9683 38.4605 76.8713 38.4605C77.7744 38.4605 78.6566 38.1547 79.6248 37.5489V35.5248C79.1037 35.8976 78.701 36.084 78.4109 36.084H78.4079ZM73.662 31.9863C73.662 32.8309 73.4044 33.6202 72.8951 34.3512C72.078 35.5044 70.9588 36.084 69.5259 36.084C68.608 36.084 67.8708 35.7928 67.3172 35.1986C66.7635 34.6104 66.4882 33.8298 66.4882 32.8571C66.4882 32.0096 66.7398 31.232 67.2402 30.5214C67.7287 29.8254 68.6051 29.24 69.8752 28.7711C71.5036 28.1682 72.4244 27.8158 72.6405 27.7256C72.8566 27.6353 73.1942 27.4664 73.659 27.213V31.9863H73.662Z" fill="#2D2D2D"/>
<path d="M86.1854 29.1526L81.1759 20.8437C80.9449 20.4418 80.717 20.104 80.4979 19.8302H84.93C85.0129 20.1156 85.1698 20.4534 85.4008 20.8437L88.8411 26.4238L92.7314 20.8437C93.0127 20.4214 93.1844 20.0836 93.2555 19.8331H95.476C95.1118 20.2787 94.8572 20.6165 94.7062 20.8466L89.7826 28.0925L95.2332 37.1237C95.3931 37.3858 95.627 37.7237 95.926 38.1372H91.4406C91.4317 37.8955 91.2925 37.5577 91.0231 37.1237L87.1653 30.769L82.7509 37.1237C82.6207 37.3159 82.4223 37.6538 82.1558 38.1372H79.9561C80.1426 37.9421 80.4031 37.6043 80.7406 37.1237L86.1854 29.1555V29.1526Z" fill="#2D2D2D"/>
<path d="M97.1787 19.8331H101.111C101.016 20.1855 100.968 20.5641 100.968 20.966V37.0043C100.968 37.3946 101.016 37.7703 101.111 38.1401H97.1787C97.2705 37.7965 97.3179 37.4179 97.3179 37.0043V20.966C97.3179 20.5408 97.2705 20.1651 97.1787 19.8331Z" fill="#2D2D2D"/>
<path d="M107.532 21.9242C108.882 20.2408 110.656 19.3962 112.852 19.3962C114.072 19.3962 115.085 19.5972 115.878 19.9991C116.675 20.401 117.341 21.0446 117.877 21.9242C118.771 20.998 119.644 20.3428 120.494 19.9641C121.344 19.5855 122.356 19.3962 123.529 19.3962C127.114 19.3962 128.902 21.1087 128.902 24.5336V37.0014C128.902 37.4004 128.95 37.779 129.044 38.1372H125.116C125.207 37.779 125.255 37.4033 125.255 37.0014V25.1365C125.255 24.1608 125.092 23.4444 124.766 22.9872C124.278 22.2999 123.393 21.9533 122.114 21.9533C120.834 21.9533 119.929 22.2678 119.248 22.8881C118.567 23.5172 118.226 24.4026 118.226 25.5471V37.0014C118.226 37.4266 118.271 37.8023 118.365 38.1372H114.433C114.528 37.8052 114.576 37.4266 114.576 37.0014V25.1365C114.576 24.1608 114.401 23.4502 114.052 23.0046C113.507 22.3028 112.645 21.9533 111.473 21.9533C110.3 21.9533 109.377 22.2591 108.666 22.8648C107.958 23.4735 107.603 24.2744 107.603 25.2704V36.9985C107.603 37.3975 107.648 37.7761 107.742 38.1343H103.813C103.908 37.7761 103.953 37.4004 103.953 36.9985V20.9427C103.953 20.5233 103.908 20.1476 103.813 19.8302H107.529V21.9212L107.532 21.9242Z" fill="#2D2D2D"/>
<path d="M131.531 19.8331H135.46C135.368 20.1855 135.321 20.5641 135.321 20.966V37.0043C135.321 37.3946 135.368 37.7703 135.46 38.1401H131.531C131.623 37.7965 131.667 37.4179 131.667 37.0043V20.966C131.667 20.5408 131.623 20.1651 131.531 19.8331Z" fill="#2D2D2D"/>
<path d="M137.775 38.1372V36.2879L148.899 21.6125H139.336C138.871 21.6125 138.394 21.665 137.906 21.7669V19.8331H153.195V21.6621L142.11 36.3199H151.833C152.277 36.3199 152.727 36.2762 153.195 36.183V38.1372H137.778H137.775Z" fill="#2D2D2D"/>
<path d="M164.164 35.6763C163.418 36.5471 162.737 37.1587 162.124 37.514C161.032 38.1459 159.785 38.4634 158.388 38.4634C156.991 38.4634 155.806 38.0498 154.933 37.2256C153.864 36.2296 153.325 34.8958 153.325 33.2241C153.325 31.232 154.086 29.7438 155.611 28.7565C156.286 28.3226 156.922 27.9935 157.523 27.7692C158.122 27.545 159.48 27.1198 161.597 26.4907C162.483 26.2257 163.107 25.8995 163.483 25.518C163.853 25.1365 164.04 24.6093 164.04 23.9482C164.04 23.1706 163.726 22.5358 163.095 22.0494C162.468 21.563 161.645 21.3184 160.632 21.3184C159.762 21.3184 158.983 21.4553 158.305 21.7319C157.624 22.0057 156.789 22.5183 155.797 23.2638L155.205 20.9281C156.472 20.3428 157.565 19.9409 158.486 19.7224C159.406 19.504 160.466 19.3962 161.665 19.3962C163.587 19.3962 165.07 19.7661 166.118 20.5058C167.163 21.2427 167.688 22.2882 167.688 23.6424V34.5113C167.688 35.5627 168.052 36.084 168.783 36.084C169.073 36.084 169.473 35.8976 169.994 35.5248V37.5489C169.029 38.1576 168.111 38.4605 167.243 38.4605C166.376 38.4605 165.654 38.2537 165.198 37.8431C164.739 37.4324 164.392 36.7072 164.161 35.6763H164.164ZM164.043 27.213C163.578 27.4664 163.238 27.6353 163.024 27.7256C162.805 27.8188 161.885 28.1682 160.256 28.7711C158.989 29.2429 158.11 29.8254 157.624 30.5214C157.121 31.2291 156.872 32.0067 156.872 32.8571C156.872 33.8298 157.147 34.6104 157.701 35.1986C158.255 35.7899 158.992 36.084 159.91 36.084C161.34 36.084 162.465 35.5074 163.279 34.3512C163.791 33.6202 164.049 32.8309 164.049 31.9863V27.213H164.043Z" fill="#2D2D2D"/>
<path fill-rule="evenodd" clip-rule="evenodd" d="M1.14555 45.6132L41.0379 13.5745C42.8972 12.2144 46.0681 9.9282 48.1969 12.1503C50.8319 15.0598 46.0119 19.2361 44.5167 21.0505L43.8121 21.8484L61.1913 7.98857C62.4289 7.13234 63.6754 5.97614 65.0876 6.91392C67.24 8.31767 65.2623 11.163 64.383 12.5522L57.5793 22.1106L53.7274 26.7616L71.1955 15.0598L90.5614 3.27057L90.7746 3.57345C90.7746 3.57345 49.6358 34.3075 47.2643 35.1317C45.5796 35.6763 44.2651 34.1502 44.9164 32.6067C45.5737 30.9146 55.6726 17.5819 55.6726 17.5819L50.0118 22.0319L27.848 41.335C26.6075 42.264 24.8548 42.5844 23.6054 41.3554C22.5069 40.1322 23.0043 38.7342 23.7268 37.3392L27.1908 33.0464L28.9198 31.0136L5.68725 50.5846C4.28685 51.8107 2.09593 51.668 0.849482 50.2963C-0.394009 48.9158 -0.257817 46.8364 1.14259 45.6103L1.14555 45.6132Z" fill="#006548"/>
<path fill-rule="evenodd" clip-rule="evenodd" d="M83.3496 3.84721C85.7655 3.52394 89.8454 2.29202 95.6779 0C94.846 1.72411 93.8541 3.28513 93.712 5.10535C92.285 4.03069 86.9528 4.11515 83.3496 3.84721Z" fill="#006548"/>
<path d="M68.9905 50.9605C68.7625 51.275 68.4369 51.5284 68.0164 51.7177C67.596 51.907 67.143 52.0002 66.6545 52.0002C65.7101 52.0002 64.9581 51.7265 64.3955 51.176C63.836 50.6285 63.5547 49.8917 63.5547 48.9685C63.5547 48.1006 63.833 47.3783 64.3926 46.8017C64.9521 46.225 65.6864 45.9367 66.5953 45.9367C67.1105 45.9367 67.5694 46.027 67.975 46.2105C68.3777 46.3939 68.6885 46.6298 68.9076 46.9153L68.4013 47.3958C67.9099 46.9123 67.3148 46.6706 66.616 46.6706C65.9173 46.6706 65.3755 46.8803 64.9758 47.3026C64.5761 47.7249 64.3748 48.2812 64.3748 48.9656C64.3748 49.65 64.5909 50.2149 65.0202 50.6343C65.4495 51.0537 66.015 51.2634 66.7108 51.2634C67.4539 51.2634 68.0668 50.9984 68.5494 50.4683L68.9964 50.9576L68.9905 50.9605Z" fill="#231F20"/>
<path d="M74.8821 45.9918H75.5009L78.1389 51.9214H77.3217L76.6526 50.4273H73.7067L73.0465 51.9214H72.2471L74.885 45.9918H74.8821ZM73.9968 49.7517H76.3595L75.1752 47.0665L73.9998 49.7517H73.9968Z" fill="#231F20"/>
<path d="M85.2363 49.8536C85.1001 49.7196 84.9225 49.6119 84.7034 49.5361C84.4873 49.4604 84.2445 49.3905 83.981 49.3235C83.7175 49.2595 83.454 49.1867 83.1905 49.1051C82.927 49.0236 82.6872 48.9246 82.4681 48.8081C82.2519 48.6916 82.0743 48.5285 81.9351 48.3188C81.799 48.1062 81.7279 47.8528 81.7279 47.5528C81.7279 47.0956 81.9322 46.7112 82.3408 46.3996C82.7493 46.0879 83.2882 45.9307 83.9514 45.9307C84.958 45.9307 85.6893 46.219 86.1423 46.7927L85.636 47.2907C85.2067 46.8684 84.6383 46.6558 83.9366 46.6558C83.5872 46.6558 83.2675 46.7286 82.9744 46.8714C82.6812 47.0141 82.5362 47.2354 82.5362 47.5354C82.5362 47.7596 82.628 47.9489 82.8115 48.0974C82.9951 48.246 83.223 48.3537 83.4984 48.4236C83.7737 48.4906 84.0698 48.5722 84.3925 48.6654C84.7123 48.7586 85.0113 48.8576 85.2867 48.9624C85.562 49.0673 85.79 49.2304 85.9735 49.4575C86.1571 49.6847 86.2489 49.9614 86.2489 50.2934C86.2489 50.7943 86.0416 51.2049 85.6301 51.5224C85.2186 51.8398 84.6975 52 84.0668 52C83.5517 52 83.0661 51.8893 82.6102 51.6651C82.1542 51.4437 81.8197 51.1729 81.6006 50.8584L82.1069 50.3167C82.3171 50.5875 82.6013 50.8147 82.9566 50.9952C83.3119 51.1787 83.7056 51.269 84.1409 51.269C84.5021 51.269 84.807 51.1845 85.0587 51.0185C85.3103 50.8525 85.4376 50.6283 85.4376 50.3458C85.4376 50.1477 85.3696 49.9817 85.2304 49.8478L85.2363 49.8536Z" fill="#231F20"/>
<path d="M92.4036 45.9918H93.0224L95.6603 51.9214H94.8432L94.1741 50.4273H91.2282L90.5679 51.9214H89.7686L92.4065 45.9918H92.4036ZM91.5213 49.7517H93.8839L92.6996 47.0665L91.5242 49.7517H91.5213Z" fill="#231F20"/>
<path d="M105.232 46.0093H107.089C107.678 46.0093 108.193 46.085 108.631 46.2365C109.069 46.3879 109.413 46.6005 109.668 46.8714C109.919 47.1422 110.106 47.4451 110.227 47.78C110.348 48.1149 110.408 48.4819 110.408 48.8838C110.408 49.7779 110.121 50.5089 109.549 51.0768C108.978 51.6447 108.128 51.9272 107.006 51.9272H105.235V46.0151L105.232 46.0093ZM106.014 46.7287V51.2049H107.053C107.912 51.2049 108.551 50.9953 108.969 50.5759C109.386 50.1565 109.596 49.5915 109.596 48.8809C109.596 48.2169 109.395 47.6926 108.995 47.3053C108.596 46.9209 107.953 46.7257 107.071 46.7257H106.014V46.7287Z" fill="#231F20"/>
<path d="M114.521 46.0093H118.849V46.7287H115.302V48.5693H118.609V49.2711H115.302V51.2049H118.926V51.9243H114.521V46.0122V46.0093Z" fill="#231F20"/>
<path d="M128.921 46.0093H131.352C132.118 46.0093 132.663 46.1374 132.989 46.3966C133.312 46.6558 133.474 47.017 133.474 47.4771C133.474 48.1353 133.19 48.5867 132.625 48.8284C132.956 48.8954 133.217 49.0498 133.406 49.2915C133.596 49.5332 133.691 49.8478 133.691 50.2293C133.691 50.8088 133.48 51.237 133.063 51.5078C132.645 51.7816 132.062 51.9184 131.31 51.9184H128.924V46.0064L128.921 46.0093ZM129.703 46.7286V48.5518H131.411C131.796 48.5518 132.101 48.4702 132.329 48.31C132.557 48.1499 132.672 47.9256 132.672 47.6373C132.672 47.3228 132.568 47.0898 132.358 46.9442C132.148 46.7985 131.79 46.7257 131.281 46.7257H129.7L129.703 46.7286ZM129.703 49.2536V51.2049H131.301C131.846 51.2049 132.246 51.1234 132.5 50.9603C132.755 50.7972 132.882 50.5409 132.882 50.1914C132.882 49.5653 132.385 49.2536 131.387 49.2536H129.703Z" fill="#231F20"/>
<path d="M138.433 46.8073C139.022 46.2248 139.748 45.9336 140.606 45.9336C141.465 45.9336 142.181 46.2219 142.771 46.7956C143.36 47.3693 143.656 48.0945 143.656 48.9682C143.656 49.8419 143.36 50.5496 142.771 51.1321C142.181 51.7117 141.459 52.0029 140.606 52.0029C139.754 52.0029 139.022 51.7146 138.433 51.1408C137.844 50.5671 137.548 49.8419 137.548 48.9682C137.548 48.0945 137.844 47.3926 138.433 46.8102V46.8073ZM139.022 50.6108C139.46 51.0476 139.987 51.2661 140.606 51.2661C141.225 51.2661 141.773 51.0506 142.199 50.6166C142.625 50.1827 142.839 49.6352 142.839 48.9682C142.839 48.3013 142.62 47.7538 142.181 47.3198C141.743 46.8859 141.219 46.6704 140.606 46.6704C139.993 46.6704 139.452 46.8859 139.016 47.3198C138.581 47.7538 138.362 48.3013 138.362 48.9682C138.362 49.6352 138.581 50.1739 139.019 50.6108H139.022Z" fill="#231F20"/>
<path d="M147.774 46.0093H148.556V51.2049H152.121V51.9243H147.774V46.0122V46.0093Z" fill="#231F20"/>
<path d="M159.298 49.8536C159.162 49.7196 158.984 49.6119 158.765 49.5361C158.549 49.4604 158.306 49.3905 158.042 49.3235C157.779 49.2595 157.516 49.1867 157.252 49.1051C156.988 49.0236 156.749 48.9246 156.53 48.8081C156.313 48.6916 156.136 48.5285 155.997 48.3188C155.86 48.1062 155.789 47.8528 155.789 47.5528C155.789 47.0956 155.994 46.7112 156.402 46.3996C156.811 46.0879 157.35 45.9307 158.013 45.9307C159.02 45.9307 159.751 46.219 160.204 46.7927L159.698 47.2907C159.268 46.8684 158.7 46.6558 157.998 46.6558C157.649 46.6558 157.329 46.7286 157.036 46.8714C156.743 47.0141 156.598 47.2354 156.598 47.5354C156.598 47.7596 156.689 47.9489 156.873 48.0974C157.057 48.246 157.285 48.3537 157.56 48.4236C157.835 48.4906 158.131 48.5722 158.454 48.6654C158.774 48.7586 159.073 48.8576 159.348 48.9624C159.624 49.0673 159.851 49.2304 160.035 49.4575C160.219 49.6847 160.31 49.9614 160.31 50.2934C160.31 50.7943 160.103 51.2049 159.692 51.5224C159.28 51.8398 158.759 52 158.128 52C157.613 52 157.128 51.8893 156.672 51.6651C156.216 51.4437 155.881 51.1729 155.662 50.8584L156.168 50.3167C156.379 50.5875 156.663 50.8147 157.018 50.9952C157.373 51.1787 157.767 51.269 158.202 51.269C158.564 51.269 158.869 51.1845 159.12 51.0185C159.372 50.8525 159.499 50.6283 159.499 50.3458C159.499 50.1477 159.431 49.9817 159.292 49.8478L159.298 49.8536Z" fill="#231F20"/>
<path d="M166.468 45.9918H167.087L169.725 51.9214H168.908L168.239 50.4273H165.293L164.632 51.9214H163.833L166.471 45.9918H166.468ZM165.583 49.7517H167.945L166.761 47.0665L165.586 49.7517H165.583Z" fill="#231F20"/>
</g>
<defs>
<clipPath id="clip0_1735_105">
<rect width="170" height="52" fill="white"/>
</clipPath>
</defs>
</svg>
