<svg width="165" height="50" viewBox="0 0 165 50" fill="none" xmlns="http://www.w3.org/2000/svg">
<path d="M75.8772 34.9132C75.1724 34.9132 74.82 34.4088 74.82 33.3916V22.8754C74.82 21.5651 74.3128 20.5535 73.2986 19.8406C72.2872 19.1248 70.8489 18.767 68.9923 18.767C68.7745 18.767 68.5682 18.7726 68.3591 18.7811L65.7518 21.0212C66.4079 20.7592 67.1557 20.6267 67.9952 20.6267C68.9751 20.6267 69.7687 20.8606 70.379 21.334C70.9864 21.8046 71.2901 22.4189 71.2901 23.1713C71.2901 23.8109 71.1096 24.3209 70.7486 24.6901C70.3905 25.0592 69.783 25.3748 68.9264 25.6312C66.8778 26.2371 65.5627 26.6513 64.9811 26.8683C64.4023 27.0852 63.7863 27.4036 63.133 27.8235C61.6604 28.7759 60.9211 30.2187 60.9211 32.1461C60.9211 33.7635 61.4397 35.0569 62.4769 36.0178C63.3193 36.8152 64.4338 37.2154 65.8205 37.2154C67.2073 37.2154 68.3734 36.911 69.4335 36.2967C70.0323 35.9558 70.6884 35.3612 71.4076 34.5187C71.6339 35.5162 71.9663 36.2178 72.4104 36.6152C72.8545 37.0125 73.5163 37.2125 74.3902 37.2125C75.2641 37.2125 76.1179 36.9167 77.0548 36.3306V34.3722C76.5505 34.7328 76.1609 34.9132 75.8801 34.9132H75.8772ZM71.2844 30.9485C71.2844 31.7657 71.0351 32.5293 70.5423 33.2366C69.7515 34.3524 68.6685 34.9132 67.2818 34.9132C66.3936 34.9132 65.6801 34.6314 65.1444 34.0566C64.6086 33.4874 64.3421 32.7322 64.3421 31.791C64.3421 30.971 64.5857 30.2187 65.0699 29.5311C65.5426 28.8577 66.3907 28.2913 67.6199 27.8376C69.1957 27.2543 70.0867 26.9133 70.2959 26.826C70.5051 26.7386 70.8317 26.5752 71.2815 26.33V30.9485H71.2844Z" fill="white"/>
<path d="M83.4042 28.2066L78.5564 20.1673C78.3329 19.7784 78.1123 19.4515 77.9003 19.1867H82.1894C82.2696 19.4628 82.4215 19.7897 82.645 20.1673L85.9743 25.5662L89.7391 20.1673C90.0113 19.7587 90.1775 19.4318 90.2462 19.1895H92.3951C92.0427 19.6206 91.7963 19.9475 91.6501 20.1701L86.8854 27.1809L92.1601 35.919C92.3149 36.1726 92.5412 36.4995 92.8306 36.8996H88.4899C88.4813 36.6657 88.3466 36.3388 88.0859 35.919L84.3526 29.7705L80.0807 35.919C79.9546 36.105 79.7626 36.4318 79.5048 36.8996H77.376C77.5565 36.7108 77.8086 36.3839 78.1352 35.919L83.4042 28.2094V28.2066Z" fill="white"/>
<path d="M94.0427 19.1895H97.8476C97.756 19.5304 97.7101 19.8968 97.7101 20.2856V35.8034C97.7101 36.181 97.756 36.5445 97.8476 36.9024H94.0427C94.1315 36.5699 94.1774 36.2036 94.1774 35.8034V20.2856C94.1774 19.8742 94.1315 19.5107 94.0427 19.1895Z" fill="white"/>
<path d="M104.062 21.2127C105.369 19.584 107.085 18.7668 109.211 18.7668C110.391 18.7668 111.371 18.9612 112.139 19.3501C112.91 19.739 113.554 20.3617 114.073 21.2127C114.938 20.3166 115.783 19.6826 116.606 19.3163C117.428 18.95 118.408 18.7668 119.542 18.7668C123.012 18.7668 124.743 20.4237 124.743 23.7375V35.8006C124.743 36.1867 124.788 36.553 124.88 36.8996H121.078C121.167 36.553 121.213 36.1895 121.213 35.8006V24.3208C121.213 23.3768 121.055 22.6836 120.74 22.2412C120.267 21.5762 119.411 21.2409 118.173 21.2409C116.935 21.2409 116.058 21.5452 115.399 22.1454C114.74 22.754 114.411 23.6107 114.411 24.7181V35.8006C114.411 36.212 114.454 36.5755 114.546 36.8996H110.741C110.832 36.5784 110.878 36.212 110.878 35.8006V24.3208C110.878 23.3768 110.709 22.6892 110.371 22.2581C109.844 21.579 109.01 21.2409 107.876 21.2409C106.741 21.2409 105.847 21.5367 105.159 22.1228C104.475 22.7118 104.131 23.4867 104.131 24.4504V35.7978C104.131 36.1839 104.174 36.5502 104.265 36.8968H100.463C100.555 36.5502 100.598 36.1867 100.598 35.7978V20.2631C100.598 19.8573 100.555 19.4938 100.463 19.1867H104.059V21.2099L104.062 21.2127Z" fill="white"/>
<path d="M127.287 19.1895H131.089C131 19.5304 130.954 19.8968 130.954 20.2856V35.8034C130.954 36.181 131 36.5445 131.089 36.9024H127.287C127.376 36.5699 127.419 36.2036 127.419 35.8034V20.2856C127.419 19.8742 127.376 19.5107 127.287 19.1895Z" fill="white"/>
<path d="M133.33 36.8996V35.1103L144.094 20.9112H134.84C134.39 20.9112 133.928 20.9619 133.456 21.0605V19.1895H148.251V20.9591L137.524 35.1413H146.933C147.363 35.1413 147.799 35.099 148.251 35.0088V36.8996H133.332H133.33Z" fill="white"/>
<path d="M158.866 34.5187C158.144 35.3612 157.485 35.953 156.892 36.2967C155.835 36.9082 154.629 37.2154 153.276 37.2154C151.924 37.2154 150.778 36.8152 149.933 36.0178C148.898 35.0541 148.377 33.7635 148.377 32.1461C148.377 30.2187 149.113 28.7787 150.589 27.8235C151.242 27.4036 151.858 27.0852 152.44 26.8683C153.018 26.6513 154.334 26.2399 156.382 25.6312C157.239 25.3748 157.843 25.0592 158.207 24.6901C158.565 24.3209 158.746 23.8109 158.746 23.1713C158.746 22.4189 158.442 21.8046 157.832 21.334C157.225 20.8634 156.428 20.6267 155.448 20.6267C154.606 20.6267 153.852 20.7592 153.196 21.0269C152.537 21.2918 151.729 21.7877 150.769 22.5091L150.196 20.2492C151.423 19.6828 152.48 19.2939 153.371 19.0826C154.262 18.8712 155.288 18.767 156.448 18.767C158.308 18.767 159.743 19.1248 160.757 19.8406C161.769 20.5535 162.276 21.5651 162.276 22.8754V33.3916C162.276 34.4088 162.628 34.9132 163.336 34.9132C163.617 34.9132 164.003 34.7328 164.508 34.3722V36.3306C163.574 36.9195 162.686 37.2125 161.846 37.2125C161.007 37.2125 160.307 37.0125 159.866 36.6152C159.422 36.2178 159.087 35.5162 158.863 34.5187H158.866ZM158.749 26.33C158.299 26.5752 157.969 26.7386 157.763 26.826C157.551 26.9162 156.66 27.2543 155.084 27.8376C153.858 28.2941 153.007 28.8577 152.537 29.5311C152.05 30.2158 151.809 30.9682 151.809 31.791C151.809 32.7322 152.076 33.4874 152.612 34.0566C153.147 34.6286 153.861 34.9132 154.749 34.9132C156.133 34.9132 157.222 34.3553 158.01 33.2366C158.505 32.5293 158.755 31.7657 158.755 30.9485V26.33H158.749Z" fill="white"/>
<path fill-rule="evenodd" clip-rule="evenodd" d="M1.10876 44.133L39.7138 13.1339C41.5131 11.818 44.5816 9.60601 46.6417 11.756C49.1917 14.571 44.5272 18.6118 43.0803 20.3673L42.3984 21.1394L59.2168 7.72933C60.4144 6.90089 61.6207 5.7822 62.9874 6.68955C65.0703 8.04775 63.1564 10.8008 62.3054 12.1449L55.7213 21.393L51.9938 25.8931L68.8981 14.571L87.6391 3.16443L87.8454 3.45749C87.8454 3.45749 48.0341 33.1941 45.7392 33.9916C44.1089 34.5185 42.8368 33.042 43.4671 31.5485C44.1032 29.9113 53.8762 17.0113 53.8762 17.0113L48.398 21.3169L26.9495 39.9936C25.749 40.8925 24.0529 41.2024 22.8438 40.0133C21.7808 38.8298 22.2621 37.4772 22.9612 36.1275L26.3135 31.974L27.9867 30.0072L5.5039 48.943C4.14868 50.1293 2.02848 49.9913 0.822249 48.6641C-0.381113 47.3284 -0.249316 45.3165 1.1059 44.1302L1.10876 44.133Z" fill="white"/>
<path fill-rule="evenodd" clip-rule="evenodd" d="M80.6594 3.72236C82.9974 3.40958 86.9456 2.21764 92.5899 0C91.7848 1.66816 90.825 3.17852 90.6874 4.93967C89.3064 3.89989 84.1463 3.98161 80.6594 3.72236Z" fill="white"/>
</svg>
