<?xml version="1.0" encoding="UTF-8"?>
<svg id="Layer_1" xmlns="http://www.w3.org/2000/svg" xmlns:xlink="http://www.w3.org/1999/xlink" version="1.1" viewBox="0 0 220 100">
  <!-- Generator: Adobe Illustrator 30.2.1, SVG Export Plug-In . SVG Version: 2.1.1 Build 1)  -->
  <defs>
    <style>
      .st0 {
        fill: none;
      }

      .st1 {
        fill: #231f20;
      }

      .st2 {
        fill: #006548;
        fill-rule: evenodd;
      }

      .st3 {
        fill: #2d2d2d;
      }

      .st4 {
        clip-path: url(#clippath);
      }
    </style>
    <clipPath id="clippath">
      <rect class="st0" x="23" y="22" width="170" height="52"/>
    </clipPath>
  </defs>
  <g class="st4">
    <g>
      <path class="st3" d="M101.41,58.08c-.73,0-1.09-.52-1.09-1.57v-10.87c0-1.35-.52-2.4-1.57-3.14-1.05-.74-2.53-1.11-4.45-1.11-.23,0-.44,0-.65.01l-2.69,2.32c.68-.27,1.45-.41,2.32-.41,1.01,0,1.83.24,2.46.73.63.49.94,1.12.94,1.9,0,.66-.19,1.19-.56,1.57-.37.38-1,.71-1.88.97-2.12.63-3.48,1.05-4.08,1.28-.6.22-1.23.55-1.91.99-1.52.98-2.29,2.48-2.29,4.47,0,1.67.54,3.01,1.61,4,.87.82,2.02,1.24,3.46,1.24s2.64-.31,3.73-.95c.62-.35,1.3-.97,2.04-1.84.23,1.03.58,1.76,1.04,2.17.46.41,1.14.62,2.05.62s1.79-.31,2.75-.91v-2.02c-.52.37-.92.56-1.21.56h0ZM96.66,53.99c0,.84-.26,1.63-.77,2.36-.82,1.15-1.94,1.73-3.37,1.73-.92,0-1.66-.29-2.21-.89-.55-.59-.83-1.37-.83-2.34,0-.85.25-1.63.75-2.34.49-.7,1.36-1.28,2.64-1.75,1.63-.6,2.55-.96,2.77-1.05.22-.09.55-.26,1.02-.51v4.77h0Z"/>
      <path class="st3" d="M109.19,51.15l-5.01-8.31c-.23-.4-.46-.74-.68-1.01h4.43c.08.29.24.62.47,1.01l3.44,5.58,3.89-5.58c.28-.42.45-.76.52-1.01h2.22c-.36.45-.62.78-.77,1.01l-4.92,7.25,5.45,9.03c.16.26.39.6.69,1.01h-4.49c0-.24-.15-.58-.42-1.01l-3.86-6.35-4.41,6.35c-.13.19-.33.53-.6,1.01h-2.2c.19-.2.45-.53.78-1.01l5.44-7.97h0Z"/>
      <path class="st3" d="M120.18,41.83h3.93c-.1.35-.14.73-.14,1.13v16.04c0,.39.05.77.14,1.14h-3.93c.09-.34.14-.72.14-1.14v-16.04c0-.43-.05-.8-.14-1.13Z"/>
      <path class="st3" d="M130.53,43.92c1.35-1.68,3.12-2.53,5.32-2.53,1.22,0,2.23.2,3.03.6.8.4,1.46,1.05,2,1.93.89-.93,1.77-1.58,2.62-1.96.85-.38,1.86-.57,3.03-.57,3.58,0,5.37,1.71,5.37,5.14v12.47c0,.4.05.78.14,1.14h-3.93c.09-.36.14-.73.14-1.14v-11.86c0-.98-.16-1.69-.49-2.15-.49-.69-1.37-1.03-2.65-1.03s-2.18.31-2.87.93c-.68.63-1.02,1.51-1.02,2.66v11.45c0,.43.05.8.14,1.14h-3.93c.1-.33.14-.71.14-1.14v-11.86c0-.98-.17-1.69-.52-2.13-.54-.7-1.41-1.05-2.58-1.05s-2.1.31-2.81.91c-.71.61-1.06,1.41-1.06,2.41v11.73c0,.4.05.78.14,1.14h-3.93c.09-.36.14-.73.14-1.14v-16.06c0-.42-.05-.8-.14-1.11h3.72v2.09h0Z"/>
      <path class="st3" d="M154.53,41.83h3.93c-.09.35-.14.73-.14,1.13v16.04c0,.39.05.77.14,1.14h-3.93c.09-.34.14-.72.14-1.14v-16.04c0-.43-.04-.8-.14-1.13Z"/>
      <path class="st3" d="M160.77,60.14v-1.85l11.12-14.68h-9.56c-.46,0-.94.05-1.43.15v-1.93h15.29v1.83l-11.09,14.66h9.72c.44,0,.89-.04,1.36-.14v1.95h-15.42Z"/>
      <path class="st3" d="M187.16,57.68c-.75.87-1.43,1.48-2.04,1.84-1.09.63-2.34.95-3.74.95s-2.58-.41-3.46-1.24c-1.07-1-1.61-2.33-1.61-4,0-1.99.76-3.48,2.29-4.47.68-.43,1.31-.76,1.91-.99.6-.22,1.96-.65,4.07-1.28.89-.26,1.51-.59,1.89-.97.37-.38.56-.91.56-1.57,0-.78-.31-1.41-.94-1.9-.63-.49-1.45-.73-2.46-.73-.87,0-1.65.14-2.33.41-.68.27-1.52.79-2.51,1.53l-.59-2.34c1.27-.59,2.36-.99,3.28-1.21.92-.22,1.98-.33,3.18-.33,1.92,0,3.41.37,4.45,1.11,1.04.74,1.57,1.78,1.57,3.14v10.87c0,1.05.36,1.57,1.1,1.57.29,0,.69-.19,1.21-.56v2.02c-.96.61-1.88.91-2.75.91s-1.59-.21-2.04-.62c-.46-.41-.81-1.14-1.04-2.17h0ZM187.04,49.21c-.46.25-.8.42-1.02.51-.22.09-1.14.44-2.77,1.05-1.27.47-2.15,1.05-2.63,1.75-.5.71-.75,1.49-.75,2.34,0,.97.28,1.75.83,2.34.55.59,1.29.89,2.21.89,1.43,0,2.55-.58,3.37-1.73.51-.73.77-1.52.77-2.36v-4.77h0Z"/>
      <path class="st2" d="M24.15,67.61l39.89-32.04c1.86-1.36,5.03-3.65,7.16-1.42,2.64,2.91-2.18,7.09-3.68,8.9l-.7.8,17.38-13.86c1.24-.86,2.48-2.01,3.9-1.07,2.15,1.4.17,4.25-.7,5.64l-6.8,9.56-3.85,4.65,17.47-11.7,19.37-11.79.21.3s-41.14,30.73-43.51,31.56c-1.68.54-3-.98-2.35-2.52.66-1.69,10.76-15.02,10.76-15.02l-5.66,4.45-22.16,19.3c-1.24.93-2.99,1.25-4.24.02-1.1-1.22-.6-2.62.12-4.02l3.46-4.29,1.73-2.03-23.23,19.57c-1.4,1.23-3.59,1.08-4.84-.29-1.24-1.38-1.11-3.46.29-4.69h0Z"/>
      <path class="st2" d="M106.35,25.85c2.42-.32,6.5-1.56,12.33-3.85-.83,1.72-1.82,3.29-1.97,5.11-1.43-1.07-6.76-.99-10.36-1.26Z"/>
      <path class="st1" d="M91.99,72.96c-.23.31-.55.57-.97.76-.42.19-.87.28-1.36.28-.94,0-1.7-.27-2.26-.82-.56-.55-.84-1.28-.84-2.21,0-.87.28-1.59.84-2.17.56-.58,1.29-.87,2.2-.87.52,0,.97.09,1.38.27.4.18.71.42.93.7l-.51.48c-.49-.48-1.09-.73-1.79-.73s-1.24.21-1.64.63c-.4.42-.6.98-.6,1.66s.22,1.25.65,1.67c.43.42.99.63,1.69.63.74,0,1.36-.26,1.84-.8l.45.49h0Z"/>
      <path class="st1" d="M97.88,67.99h.62l2.64,5.93h-.82l-.67-1.49h-2.95l-.66,1.49h-.8l2.64-5.93h0ZM97,71.75h2.36l-1.18-2.69-1.18,2.69h0Z"/>
      <path class="st1" d="M108.24,71.85c-.14-.13-.31-.24-.53-.32-.22-.08-.46-.15-.72-.21-.26-.06-.53-.14-.79-.22-.26-.08-.5-.18-.72-.3-.22-.12-.39-.28-.53-.49-.14-.21-.21-.47-.21-.77,0-.46.2-.84.61-1.15.41-.31.95-.47,1.61-.47,1.01,0,1.74.29,2.19.86l-.51.5c-.43-.42-1-.63-1.7-.63-.35,0-.67.07-.96.22-.29.14-.44.36-.44.66,0,.22.09.41.28.56.18.15.41.26.69.33.28.07.57.15.89.24.32.09.62.19.89.3.28.1.5.27.69.5.18.23.28.5.28.84,0,.5-.21.91-.62,1.23-.41.32-.93.48-1.56.48-.52,0-1-.11-1.46-.33-.46-.22-.79-.49-1.01-.81l.51-.54c.21.27.49.5.85.68.36.18.75.27,1.18.27.36,0,.67-.08.92-.25.25-.17.38-.39.38-.67,0-.2-.07-.36-.21-.5h0Z"/>
      <path class="st1" d="M115.4,67.99h.62l2.64,5.93h-.82l-.67-1.49h-2.95l-.66,1.49h-.8l2.64-5.93h0ZM114.52,71.75h2.36l-1.18-2.69-1.18,2.69h0Z"/>
      <path class="st1" d="M128.23,68.01h1.86c.59,0,1.1.08,1.54.23.44.15.78.36,1.04.63.25.27.44.57.56.91.12.33.18.7.18,1.1,0,.89-.29,1.63-.86,2.19-.57.57-1.42.85-2.54.85h-1.77v-5.91h0ZM129.01,68.73v4.48h1.04c.86,0,1.5-.21,1.92-.63.42-.42.63-.98.63-1.69,0-.66-.2-1.19-.6-1.58-.4-.38-1.04-.58-1.92-.58h-1.06Z"/>
      <path class="st1" d="M137.52,68.01h4.33v.72h-3.55v1.84h3.31v.7h-3.31v1.93h3.62v.72h-4.4v-5.91h0Z"/>
      <path class="st1" d="M151.92,68.01h2.43c.77,0,1.31.13,1.64.39.32.26.49.62.49,1.08,0,.66-.28,1.11-.85,1.35.33.07.59.22.78.46.19.24.28.56.28.94,0,.58-.21,1.01-.63,1.28-.42.27-1,.41-1.75.41h-2.39v-5.91h0ZM152.7,68.73v1.82h1.71c.39,0,.69-.08.92-.24.23-.16.34-.38.34-.67,0-.31-.1-.55-.31-.69-.21-.15-.57-.22-1.08-.22h-1.58,0ZM152.7,71.25v1.95h1.6c.54,0,.95-.08,1.2-.24.26-.16.38-.42.38-.77,0-.63-.5-.94-1.5-.94h-1.68Z"/>
      <path class="st1" d="M161.43,68.81c.59-.58,1.32-.87,2.17-.87s1.57.29,2.16.86c.59.57.89,1.3.89,2.17s-.3,1.58-.89,2.16c-.59.58-1.31.87-2.16.87s-1.58-.29-2.17-.86c-.59-.57-.88-1.3-.88-2.17s.3-1.58.88-2.16h0ZM162.02,72.61c.44.44.96.66,1.58.66s1.17-.22,1.59-.65c.43-.43.64-.98.64-1.65s-.22-1.21-.66-1.65c-.44-.43-.96-.65-1.57-.65s-1.15.22-1.59.65c-.44.43-.65.98-.65,1.65s.22,1.21.66,1.64h0Z"/>
      <path class="st1" d="M170.77,68.01h.78v5.2h3.57v.72h-4.35v-5.91h0Z"/>
      <path class="st1" d="M182.3,71.85c-.14-.13-.31-.24-.53-.32-.22-.08-.46-.15-.72-.21-.26-.06-.53-.14-.79-.22-.26-.08-.5-.18-.72-.3-.22-.12-.39-.28-.53-.49-.14-.21-.21-.47-.21-.77,0-.46.21-.84.61-1.15.41-.31.95-.47,1.61-.47,1.01,0,1.74.29,2.19.86l-.51.5c-.43-.42-1-.63-1.7-.63-.35,0-.67.07-.96.22-.29.14-.44.36-.44.66,0,.22.09.41.27.56.18.15.41.26.69.33.28.07.57.15.89.24.32.09.62.19.89.3.28.1.5.27.69.5.18.23.27.5.27.84,0,.5-.21.91-.62,1.23-.41.32-.93.48-1.56.48-.51,0-1-.11-1.46-.33-.46-.22-.79-.49-1.01-.81l.51-.54c.21.27.49.5.85.68.35.18.75.27,1.18.27.36,0,.67-.08.92-.25.25-.17.38-.39.38-.67,0-.2-.07-.36-.21-.5h0Z"/>
      <path class="st1" d="M189.47,67.99h.62l2.64,5.93h-.82l-.67-1.49h-2.95l-.66,1.49h-.8l2.64-5.93h0ZM188.58,71.75h2.36l-1.18-2.69-1.18,2.69h0Z"/>
    </g>
  </g>
</svg>